<?xml version="1.0" encoding="utf-8"?>
<!-- Generator: Adobe Illustrator 24.1.0, SVG Export Plug-In . SVG Version: 6.00 Build 0)  -->
<svg version="1.1" id="Layer_1" xmlns="http://www.w3.org/2000/svg" xmlns:xlink="http://www.w3.org/1999/xlink" x="0px" y="0px"
	 viewBox="0 0 24 24" style="enable-background:new 0 0 24 24;" xml:space="preserve">
<style type="text/css">
	.st0{fill:none;}
</style>
<path class="st0" d="M0,0h24v24H0V0z"/>
<path d="M13.7,9.5l0.8,0.8L7,17.8H6.2V17L13.7,9.5 M16.7,4.6c-0.2,0-0.4,0.1-0.6,0.2l-1.5,1.5l3.1,3.1l1.5-1.5
	c0.3-0.3,0.3-0.8,0-1.2l-1.9-1.9C17.1,4.7,16.9,4.6,16.7,4.6z M13.7,7.2l-9.1,9.1v3.1h3.1l9.1-9.1C16.8,10.3,13.7,7.2,13.7,7.2z" fill="#565656"/>
</svg>
