<?xml version="1.0" encoding="utf-8"?>
<!-- Generator: Adobe Illustrator 24.1.0, SVG Export Plug-In . SVG Version: 6.00 Build 0)  -->
<svg version="1.1" id="Layer_1" xmlns="http://www.w3.org/2000/svg" xmlns:xlink="http://www.w3.org/1999/xlink" x="0px" y="0px"
	 viewBox="0 0 24 24" style="enable-background:new 0 0 24 24;" xml:space="preserve">
<style type="text/css">
	.st0{fill:none;}
	.st1{fill:#565656;}
</style>
<path class="st0" d="M0,0h24v24H0V0z"/>
<path class="st1" d="M12.9,4h-1.8v8.9h1.8V4z M17.2,5.9l-1.3,1.3c1.4,1.1,2.3,2.9,2.3,4.8c0,3.4-2.8,6.2-6.2,6.2S5.8,15.4,5.8,12
	c0-1.9,0.9-3.7,2.3-4.8L6.8,5.9C5.1,7.4,4,9.6,4,12c0,4.4,3.6,8,8,8s8-3.6,8-8C20,9.6,18.9,7.4,17.2,5.9z"/>
</svg>
