<?xml version="1.0" encoding="utf-8"?>
<!-- Generator: Adobe Illustrator 24.1.0, SVG Export Plug-In . SVG Version: 6.00 Build 0)  -->
<svg version="1.1" id="Layer_1" xmlns="http://www.w3.org/2000/svg" xmlns:xlink="http://www.w3.org/1999/xlink" x="0px" y="0px"
	 viewBox="0 0 24 24" style="enable-background:new 0 0 24 24;" xml:space="preserve">
<style type="text/css">
	.st0{fill:#FFF;}
	.st1{fill:none;}
</style>
<path class="st0" d="M12,4.8V2.1L8.4,5.7L12,9.3V6.6c3,0,5.4,2.4,5.4,5.4c0,0.9-0.2,1.8-0.6,2.5l1.3,1.3c0.7-1.1,1.1-2.4,1.1-3.8
	C19.2,8,16,4.8,12,4.8z M12,17.4c-3,0-5.4-2.4-5.4-5.4c0-0.9,0.2-1.8,0.6-2.5L5.9,8.2C5.2,9.3,4.8,10.6,4.8,12c0,4,3.2,7.2,7.2,7.2
	v2.7l3.6-3.6L12,14.7V17.4z"/>
<path class="st1" d="M0,0h24v24H0V0z"/>
</svg>
