<?xml version="1.0" encoding="iso-8859-1"?>
<!-- Generator: Adobe Illustrator 19.0.0, SVG Export Plug-In . SVG Version: 6.00 Build 0)  -->
<svg version="1.1" id="Capa_1" xmlns="http://www.w3.org/2000/svg" xmlns:xlink="http://www.w3.org/1999/xlink" x="0px" y="0px"
	 viewBox="0 0 512 512" style="enable-background:new 0 0 512 512;" xml:space="preserve">
<g>
	<g>
		<path d="M262.656,403.136c-1.28-1.728-2.795-3.243-4.523-4.523l-74.667-55.253c-9.429-7.061-22.805-5.163-29.867,4.267
			c-2.773,3.691-4.267,8.192-4.267,12.8v37.547h-64c-23.573,0-42.667-19.093-42.667-42.667v-206.08
			c0-23.573,19.093-42.667,42.667-42.667h85.333c11.776,0,21.333-9.557,21.333-21.333s-9.557-21.333-21.333-21.333H85.333
			C38.208,63.893,0,102.101,0,149.227V355.52c0,47.125,38.208,85.333,85.333,85.333h64v30.507c0,11.776,9.557,21.333,21.333,21.333
			c4.608,0,9.109-1.493,12.8-4.267l74.667-55.467C267.627,425.963,269.632,412.608,262.656,403.136z" fill="#d1d1d1"/>
	</g>
</g>
<g>
	<g>
		<path d="M426.667,71.147h-64V40.64c0-11.776-9.557-21.333-21.333-21.333c-4.608,0-9.109,1.493-12.8,4.267L253.867,79.04
			c-9.493,6.997-11.499,20.352-4.523,29.824c1.28,1.728,2.795,3.243,4.523,4.523l74.667,55.467
			c9.429,7.061,22.805,5.163,29.867-4.267c2.773-3.691,4.267-8.192,4.267-12.8v-37.973h64c23.573,0,42.667,19.093,42.667,42.667
			v206.293c0,23.573-19.093,42.667-42.667,42.667h-85.333c-11.776,0-21.333,9.557-21.333,21.333s9.557,21.333,21.333,21.333h85.333
			c47.125,0,85.333-38.208,85.333-85.333V156.48C512,109.355,473.792,71.147,426.667,71.147z" fill="#d1d1d1"/>
	</g>
</g>
<g>
	<g>
		<circle cx="266.666" cy="255.988" r="34.56" fill="#d1d1d1"/>
	</g>
</g>
<g>
</g>
<g>
</g>
<g>
</g>
<g>
</g>
<g>
</g>
<g>
</g>
<g>
</g>
<g>
</g>
<g>
</g>
<g>
</g>
<g>
</g>
<g>
</g>
<g>
</g>
<g>
</g>
<g>
</g>
</svg>
